<svg xmlns="http://www.w3.org/2000/svg" xmlns:xlink="http://www.w3.org/1999/xlink" width="1540" height="819.85"><rect width="1540" height="819.85" rx="5" ry="5" class="a"/><svg y="0%" x="0%"><circle cx="20" cy="20" r="6" fill="#ff5f58"/><circle cx="40" cy="20" r="6" fill="#ffbd2e"/><circle cx="60" cy="20" r="6" fill="#18c132"/></svg><svg height="759.85" viewBox="0 0 150 75.985" width="1500" x="15" xmlns="http://www.w3.org/2000/svg" xmlns:xlink="http://www.w3.org/1999/xlink" y="50"><style>@keyframes s{0%{transform:translateX(0)}.2%{transform:translateX(-150px)}2.4%{transform:translateX(-300px)}20.9%{transform:translateX(-450px)}25.5%{transform:translateX(-600px)}45.5%{transform:translateX(-900px)}47.7%{transform:translateX(-1500px)}84%{transform:translateX(-1800px)}84.1%{transform:translateX(-1950px)}85.5%{transform:translateX(-2100px)}86.4%{transform:translateX(-2250px)}to{transform:translateX(-2550px)}}.a{fill:#282d35}.g,.l{white-space:pre}.g{fill:#fff;font-weight:700}.l{fill:#b9c0cb}.m{fill:#a8cc8c}.m,.n,.o,.p{white-space:pre}.n{fill:#b9c0cb;font-weight:700}.o,.p{fill:#66c2cd}.p{fill:#dbab79;font-weight:700}</style><g font-family="Monaco,Consolas,Menlo,'Bitstream Vera Sans Mono','Powerline Symbols',monospace" font-size="1.67"><defs><symbol id="1"><text y="1.67" style="white-space:pre" fill="#d75f00" font-weight="700">josh</text><text x="4.008" y="1.67" class="g">@</text><text x="5.01" y="1.67" style="white-space:pre" fill="#af8700" font-weight="700">Joshuas-MacBook-Pro</text><text x="25.05" y="1.67" class="g">in</text><text x="28.056" y="1.67" style="white-space:pre" fill="#5f8700" font-weight="700">~/code/loguricorn</text><text x="46.092" y="1.67" class="g">on</text><text x="49.098" y="1.67" style="white-space:pre" fill="#5f5faf" font-weight="700">master</text><text x="56.112" y="1.67" style="white-space:pre" fill="#0087ff" font-weight="700">[!?]</text></symbol><symbol id="2"><text y="1.67" class="g">$</text></symbol><symbol id="3"><text y="1.67" class="g">$</text><text x="2.004" y="1.67" class="l">gunicorn</text><text x="11.022" y="1.67" class="l">--worker-class</text><text x="26.052" y="1.67" class="l">aiohttp.worker.GunicornWebWorker</text><text x="59.118" y="1.67" class="l">--logger-class</text><text x="74.148" y="1.67" class="l">loguricorn.Logger</text><text x="92.184" y="1.67" class="l">tests.app:app</text></symbol><symbol id="4"><text y="1.67" class="m">2022-02-14</text><text x="11.022" y="1.67" class="m">16:14:36.940</text><text x="24.048" y="1.67" class="l">|</text><text x="26.052" y="1.67" class="n">INFO</text><text x="35.07" y="1.67" class="l">|</text><text x="37.074" y="1.67" class="o">gunicorn.glogging</text><text x="54.108" y="1.67" class="l">:</text><text x="55.11" y="1.67" class="o">info</text><text x="59.118" y="1.67" class="l">:</text><text x="60.12" y="1.67" class="o">264</text><text x="64.128" y="1.67" class="l">-</text><text x="66.132" y="1.67" class="n">Starting</text><text x="75.15" y="1.67" class="n">gunicorn</text><text x="84.168" y="1.67" class="n">20.1.0</text></symbol><symbol id="5"><text y="1.67" class="m">2022-02-14</text><text x="11.022" y="1.67" class="m">16:14:36.940</text><text x="24.048" y="1.67" class="l">|</text><text x="26.052" y="1.67" class="n">INFO</text><text x="35.07" y="1.67" class="l">|</text><text x="37.074" y="1.67" class="o">gunicorn.glogging</text><text x="54.108" y="1.67" class="l">:</text><text x="55.11" y="1.67" class="o">info</text><text x="59.118" y="1.67" class="l">:</text><text x="60.12" y="1.67" class="o">264</text><text x="64.128" y="1.67" class="l">-</text><text x="66.132" y="1.67" class="n">Listening</text><text x="76.152" y="1.67" class="n">at:</text><text x="80.16" y="1.67" class="n">http://127.0.0.1:8000</text><text x="102.204" y="1.67" class="n">(79236)</text></symbol><symbol id="6"><text y="1.67" class="m">2022-02-14</text><text x="11.022" y="1.67" class="m">16:14:36.940</text><text x="24.048" y="1.67" class="l">|</text><text x="26.052" y="1.67" class="n">INFO</text><text x="35.07" y="1.67" class="l">|</text><text x="37.074" y="1.67" class="o">gunicorn.glogging</text><text x="54.108" y="1.67" class="l">:</text><text x="55.11" y="1.67" class="o">info</text><text x="59.118" y="1.67" class="l">:</text><text x="60.12" y="1.67" class="o">264</text><text x="64.128" y="1.67" class="l">-</text><text x="66.132" y="1.67" class="n">Using</text><text x="72.144" y="1.67" class="n">worker:</text><text x="80.16" y="1.67" class="n">aiohttp.worker.GunicornWebWorker</text></symbol><symbol id="7"><text y="1.67" class="m">2022-02-14</text><text x="11.022" y="1.67" class="m">16:14:36.943</text><text x="24.048" y="1.67" class="l">|</text><text x="26.052" y="1.67" class="n">INFO</text><text x="35.07" y="1.67" class="l">|</text><text x="37.074" y="1.67" class="o">gunicorn.glogging</text><text x="54.108" y="1.67" class="l">:</text><text x="55.11" y="1.67" class="o">info</text><text x="59.118" y="1.67" class="l">:</text><text x="60.12" y="1.67" class="o">264</text><text x="64.128" y="1.67" class="l">-</text><text x="66.132" y="1.67" class="n">Booting</text><text x="74.148" y="1.67" class="n">worker</text><text x="81.162" y="1.67" class="n">with</text><text x="86.172" y="1.67" class="n">pid:</text><text x="91.182" y="1.67" class="n">79237</text></symbol><symbol id="8"><text y="1.67" class="l">^C</text><text x="2.004" y="1.67" class="m">2022-02-14</text><text x="13.026" y="1.67" class="m">16:14:39.510</text><text x="26.052" y="1.67" class="l">|</text><text x="28.056" y="1.67" class="n">INFO</text><text x="37.074" y="1.67" class="l">|</text><text x="39.078" y="1.67" class="o">gunicorn.glogging</text><text x="56.112" y="1.67" class="l">:</text><text x="57.114" y="1.67" class="o">info</text><text x="61.122" y="1.67" class="l">:</text><text x="62.124" y="1.67" class="o">264</text><text x="66.132" y="1.67" class="l">-</text><text x="68.136" y="1.67" class="n">Handling</text><text x="77.154" y="1.67" class="n">signal:</text><text x="85.17" y="1.67" class="n">int</text></symbol><symbol id="9"><text y="1.67" class="m">2022-02-14</text><text x="11.022" y="1.67" class="m">16:14:39.512</text><text x="24.048" y="1.67" class="l">|</text><text x="26.052" y="1.67" class="p">WARNING</text><text x="35.07" y="1.67" class="l">|</text><text x="37.074" y="1.67" class="o">gunicorn.glogging</text><text x="54.108" y="1.67" class="l">:</text><text x="55.11" y="1.67" class="o">warning</text><text x="62.124" y="1.67" class="l">:</text><text x="63.126" y="1.67" class="o">261</text><text x="67.134" y="1.67" class="l">-</text><text x="69.138" y="1.67" class="p">Worker</text><text x="76.152" y="1.67" class="p">with</text><text x="81.162" y="1.67" class="p">pid</text><text x="85.17" y="1.67" class="p">79237</text><text x="91.182" y="1.67" class="p">was</text><text x="95.19" y="1.67" class="p">terminated</text><text x="106.212" y="1.67" class="p">due</text><text x="110.22" y="1.67" class="p">to</text><text x="113.226" y="1.67" class="p">signal</text><text x="120.24" y="1.67" class="p">3</text></symbol><symbol id="10"><text y="1.67" class="m">2022-02-14</text><text x="11.022" y="1.67" class="m">16:14:39.617</text><text x="24.048" y="1.67" class="l">|</text><text x="26.052" y="1.67" class="n">INFO</text><text x="35.07" y="1.67" class="l">|</text><text x="37.074" y="1.67" class="o">gunicorn.glogging</text><text x="54.108" y="1.67" class="l">:</text><text x="55.11" y="1.67" class="o">info</text><text x="59.118" y="1.67" class="l">:</text><text x="60.12" y="1.67" class="o">264</text><text x="64.128" y="1.67" class="l">-</text><text x="66.132" y="1.67" class="n">Shutting</text><text x="75.15" y="1.67" class="n">down:</text><text x="81.162" y="1.67" class="n">Master</text></symbol><symbol id="a"><path fill="transparent" d="M0 0h150v35H0z"/></symbol><symbol id="b"><path fill="#6f7683" d="M0 0h1.102v2.171H0z"/></symbol></defs><path class="a" d="M0 0h150v75.985H0z"/><g style="animation-duration:7.067797s;animation-iteration-count:infinite;animation-name:s;animation-timing-function:steps(1,end)"><svg width="2700"><svg><use xlink:href="#a"/><use xlink:href="#b" x="-.004"/></svg><svg x="150"><use xlink:href="#a"/><use xlink:href="#b" x="-.004"/></svg><svg x="300"><use xlink:href="#a"/><use xlink:href="#b" x="1.996" y="4.317"/><use xlink:href="#1" y="2.171"/><use xlink:href="#2" y="4.342"/></svg><svg x="450"><use xlink:href="#a"/><use xlink:href="#b" x="104.996" y="4.317"/><use xlink:href="#1" y="2.171"/><text y="6.012" class="g">$</text><path fill="#b9c0cb" d="M2.004 4.342h103v2.171h-103z"/><text x="2.004" y="6.012" style="white-space:pre" fill="#282d35">gunicorn --worker-class aiohttp.worker.GunicornWebWorker --logger-class loguricorn.Logger tests.app:app</text></svg><svg x="600"><use xlink:href="#a"/><use xlink:href="#b" x="104.996" y="4.317"/><use xlink:href="#1" y="2.171"/><use xlink:href="#3" y="4.342"/></svg><svg x="750"><use xlink:href="#a"/><use xlink:href="#b" x="-.004" y="6.488"/><use xlink:href="#1" y="2.171"/><use xlink:href="#3" y="4.342"/></svg><svg x="900"><use xlink:href="#a"/><use xlink:href="#b" x="-.004" y="6.488"/><use xlink:href="#1" y="2.171"/><use xlink:href="#3" y="4.342"/></svg><svg x="1050"><use xlink:href="#a"/><use xlink:href="#b" x="-.004" y="8.659"/><use xlink:href="#1" y="2.171"/><use xlink:href="#3" y="4.342"/><use xlink:href="#4" y="6.513"/></svg><svg x="1200"><use xlink:href="#a"/><use xlink:href="#b" x="-.004" y="10.83"/><use xlink:href="#1" y="2.171"/><use xlink:href="#3" y="4.342"/><use xlink:href="#4" y="6.513"/><use xlink:href="#5" y="8.684"/></svg><svg x="1350"><use xlink:href="#a"/><use xlink:href="#b" x="-.004" y="13.001"/><use xlink:href="#1" y="2.171"/><use xlink:href="#3" y="4.342"/><use xlink:href="#4" y="6.513"/><use xlink:href="#5" y="8.684"/><use xlink:href="#6" y="10.855"/></svg><svg x="1500"><use xlink:href="#a"/><use xlink:href="#b" x="-.004" y="15.172"/><use xlink:href="#1" y="2.171"/><use xlink:href="#3" y="4.342"/><use xlink:href="#4" y="6.513"/><use xlink:href="#5" y="8.684"/><use xlink:href="#6" y="10.855"/><use xlink:href="#7" y="13.026"/></svg><svg x="1650"><use xlink:href="#a"/><use xlink:href="#b" x="1.996" y="15.172"/><use xlink:href="#1" y="2.171"/><use xlink:href="#3" y="4.342"/><use xlink:href="#4" y="6.513"/><use xlink:href="#5" y="8.684"/><use xlink:href="#6" y="10.855"/><use xlink:href="#7" y="13.026"/><text y="16.867" class="l">^C</text></svg><svg x="1800"><use xlink:href="#a"/><use xlink:href="#b" x="-.004" y="17.343"/><use xlink:href="#1" y="2.171"/><use xlink:href="#3" y="4.342"/><use xlink:href="#4" y="6.513"/><use xlink:href="#5" y="8.684"/><use xlink:href="#6" y="10.855"/><use xlink:href="#7" y="13.026"/><use xlink:href="#8" y="15.197"/></svg><svg x="1950"><use xlink:href="#a"/><use xlink:href="#b" x="-.004" y="19.514"/><use xlink:href="#1" y="2.171"/><use xlink:href="#3" y="4.342"/><use xlink:href="#4" y="6.513"/><use xlink:href="#5" y="8.684"/><use xlink:href="#6" y="10.855"/><use xlink:href="#7" y="13.026"/><use xlink:href="#8" y="15.197"/><use xlink:href="#9" y="17.368"/></svg><svg x="2100"><use xlink:href="#a"/><use xlink:href="#b" x="-.004" y="21.685"/><use xlink:href="#1" y="2.171"/><use xlink:href="#3" y="4.342"/><use xlink:href="#4" y="6.513"/><use xlink:href="#5" y="8.684"/><use xlink:href="#6" y="10.855"/><use xlink:href="#7" y="13.026"/><use xlink:href="#8" y="15.197"/><use xlink:href="#9" y="17.368"/><use xlink:href="#10" y="19.539"/></svg><svg x="2250"><use xlink:href="#a"/><use xlink:href="#b" x="1.996" y="26.027"/><use xlink:href="#1" y="2.171"/><use xlink:href="#3" y="4.342"/><use xlink:href="#4" y="6.513"/><use xlink:href="#5" y="8.684"/><use xlink:href="#6" y="10.855"/><use xlink:href="#7" y="13.026"/><use xlink:href="#8" y="15.197"/><use xlink:href="#9" y="17.368"/><use xlink:href="#10" y="19.539"/><use xlink:href="#1" y="23.881"/><use xlink:href="#2" y="26.052"/></svg><svg x="2400"><use xlink:href="#a"/><use xlink:href="#b" x="-.004" y="28.198"/><use xlink:href="#1" y="2.171"/><use xlink:href="#3" y="4.342"/><use xlink:href="#4" y="6.513"/><use xlink:href="#5" y="8.684"/><use xlink:href="#6" y="10.855"/><use xlink:href="#7" y="13.026"/><use xlink:href="#8" y="15.197"/><use xlink:href="#9" y="17.368"/><use xlink:href="#10" y="19.539"/><use xlink:href="#1" y="23.881"/><use xlink:href="#2" y="26.052"/></svg><svg x="2550"><use xlink:href="#a"/><use xlink:href="#b" x="-.004" y="30.369"/><use xlink:href="#1" y="2.171"/><use xlink:href="#3" y="4.342"/><use xlink:href="#4" y="6.513"/><use xlink:href="#5" y="8.684"/><use xlink:href="#6" y="10.855"/><use xlink:href="#7" y="13.026"/><use xlink:href="#8" y="15.197"/><use xlink:href="#9" y="17.368"/><use xlink:href="#10" y="19.539"/><use xlink:href="#1" y="23.881"/><use xlink:href="#2" y="26.052"/><text y="29.893" class="l">exit</text></svg></svg></g></g></svg></svg>